<?xml version="1.0" encoding="iso-8859-1"?>
<!-- Generator: Adobe Illustrator 21.0.0, SVG Export Plug-In . SVG Version: 6.00 Build 0)  -->
<svg xmlns="http://www.w3.org/2000/svg" xmlns:xlink="http://www.w3.org/1999/xlink" version="1.1" id="Capa_1" x="0px" y="0px" viewBox="0 0 512 512" style="enable-background:new 0 0 512 512;" xml:space="preserve" width="512" height="512">
<path d="M496.985,269.832h-41.093c-5.803,0-11.086,3.341-13.57,8.58l-27.058,57.081l-10.49-38.693l23.229-23.206  c51.246-51.195,51.254-134.06-0.002-185.265c-51.139-51.064-134.33-51.064-185.448,0.002l-9.333,9.323l-9.333-9.323  c-51.116-51.065-134.307-51.067-185.45,0c-51.247,51.196-51.252,134.062,0,185.263l184.166,183.98  c5.863,5.857,15.371,5.858,21.234,0l136.455-136.317l16.627,61.329c3.643,13.434,22.112,15.054,28.063,2.499l40.413-85.253h31.59  c8.293,0,15.015-6.716,15.015-15S505.277,269.832,496.985,269.832z M233.22,425.755L59.671,252.382  C-3.832,188.942,41.393,80.017,131.17,80.017c25.887,0,51.78,9.845,71.483,29.528l19.95,19.93c5.863,5.858,15.371,5.858,21.234,0  l19.95-19.93c39.411-39.371,103.553-39.37,142.982,0c39.419,39.38,39.419,103.457,0,142.837l-11.046,11.034l-18.739-69.121  c-3.57-13.172-21.558-15.093-27.833-2.964l-47.211,91.28l-28.376-55.161c-5.312-10.324-19.871-10.941-26.055-1.146l-27.486,43.528  h-53.872c-8.293,0-15.015,6.716-15.015,15s6.723,15,15.015,15h62.152c5.155,0,9.949-2.642,12.699-6.997l17.871-28.303l29.673,57.682  c5.621,10.925,21.141,10.767,26.695,0.029l42.853-82.854l13.145,48.484L233.22,425.755z"/>















</svg>
