<?xml version="1.0" encoding="windows-1252"?>
<!-- Generator: Adobe Illustrator 18.1.1, SVG Export Plug-In . SVG Version: 6.00 Build 0)  -->
<svg version="1.1" id="Capa_1" xmlns="http://www.w3.org/2000/svg" xmlns:xlink="http://www.w3.org/1999/xlink" x="0px" y="0px" viewBox="0 0 13.421 13.421" style="enable-background:new 0 0 13.421 13.421;" xml:space="preserve">
<g>
	<path style="fill:#030104;" d="M12.843,8.669c-0.907-0.542-2.619-0.031-4.944,1.476c-1.507,0.977-2.618,1.269-3.215,0.846   c-0.871-0.616-0.709-2.674-0.498-3.862h0.179c0.122,0,0.222-0.099,0.222-0.223V6.467C5.192,6,7.47,4.183,7.786,3.013   c0.361-1.327-1.672-2.181-2.264-2.399c0.01-0.127-0.061-0.249-0.188-0.29l-0.22-0.072C4.967,0.204,4.809,0.285,4.76,0.433   L4.63,0.831C4.582,0.978,4.663,1.138,4.811,1.185l0.222,0.072c0.08,0.026,0.161,0.011,0.228-0.028   c0.742,0.266,2.06,0.957,1.884,1.609C6.907,3.713,4.932,5.367,4.121,5.984H3.71C2.9,5.366,0.924,3.713,0.687,2.838   c-0.175-0.645,1.116-1.329,1.86-1.602c0.069,0.056,0.159,0.084,0.25,0.058l0.225-0.061c0.149-0.041,0.237-0.195,0.195-0.345   l-0.11-0.404c-0.042-0.15-0.196-0.238-0.346-0.196l-0.225,0.06C2.416,0.381,2.34,0.487,2.333,0.604   c-0.553,0.2-2.657,1.06-2.291,2.409C0.348,4.14,2.475,5.869,3.17,6.411v0.495c0,0.124,0.099,0.223,0.222,0.223h0.116   c-0.205,1.189-0.429,3.543,0.79,4.406c0.296,0.212,0.646,0.316,1.051,0.316c0.767,0,1.731-0.381,2.913-1.146   c2.975-1.928,3.998-1.606,4.241-1.462c0.187,0.11,0.27,0.305,0.249,0.576c-0.03,0.38-0.284,0.863-0.708,1.177   c-0.249-0.324-0.641-0.535-1.08-0.535c-0.751,0-1.36,0.611-1.36,1.361s0.609,1.361,1.36,1.361s1.361-0.611,1.361-1.361   c0-0.067-0.007-0.133-0.016-0.198c0.608-0.394,1.053-1.076,1.106-1.753C13.456,9.348,13.247,8.909,12.843,8.669z M10.963,12.517   c-0.383,0-0.694-0.313-0.694-0.695s0.312-0.694,0.694-0.694c0.216,0,0.405,0.101,0.533,0.255c0.14,0.115,0.106,0.252,0.159,0.431   c0,0.003,0.003,0.005,0.003,0.009C11.659,12.204,11.347,12.517,10.963,12.517z"/>
</g>
<g>
</g>
<g>
</g>
<g>
</g>
<g>
</g>
<g>
</g>
<g>
</g>
<g>
</g>
<g>
</g>
<g>
</g>
<g>
</g>
<g>
</g>
<g>
</g>
<g>
</g>
<g>
</g>
<g>
</g>
</svg>