<?xml version="1.0" encoding="utf-8"?>
<!-- Svg Vector Icons : http://www.onlinewebfonts.com/icon -->
<!DOCTYPE svg PUBLIC "-//W3C//DTD SVG 1.1//EN" "http://www.w3.org/Graphics/SVG/1.1/DTD/svg11.dtd">
<svg version="1.1" xmlns="http://www.w3.org/2000/svg" xmlns:xlink="http://www.w3.org/1999/xlink" x="0px" y="0px" viewBox="0 0 1000 1000" enable-background="new 0 0 1000 1000" xml:space="preserve">
<metadata> Svg Vector Icons : http://www.onlinewebfonts.com/icon </metadata>
<g><path fill="green" d="M500,10C229.4,10,10,229.4,10,500c0,270.6,219.4,490,490,490c270.6,0,490-219.4,490-490C990,229.4,770.7,10,500,10z M500,948.4C252.3,948.4,51.6,747.7,51.6,500C51.6,252.3,252.3,51.6,500,51.6c247.7,0,448.5,200.8,448.5,448.4C948.5,747.7,747.7,948.4,500,948.4z"/><path fill="green" d="M205.7,530.5l32.3-30.5l158,167.6l411.2-393.4l30,31.9L395,730.4L205.7,530.5z"/></g>
</svg>